HIERARCHY
ROOT Hips
{
	OFFSET -0.001795 -0.223333 0.028219
	CHANNELS 6 Xposition Yposition Zposition Zrotation Yrotation Xrotation
	JOINT LeftUpLeg
	{
		OFFSET 0.069520 -0.091406 -0.006815
		CHANNELS 3 Zrotation Yrotation Xrotation
		JOINT LeftLeg
		{
			OFFSET 0.034277 -0.375199 -0.004496
			CHANNELS 3 Zrotation Yrotation Xrotation
			JOINT LeftFoot
			{
				OFFSET -0.013596 -0.397961 -0.043693
				CHANNELS 3 Zrotation Yrotation Xrotation
				JOINT LeftToe
				{
					OFFSET 0.026358 -0.055791 0.119288
					CHANNELS 3 Zrotation Yrotation Xrotation
					End Site
					{
						OFFSET 0.000000 0.000000 0.000000
					}
				}
			}
		}
	}
	JOINT RightUpLeg
	{
		OFFSET -0.067670 -0.090522 -0.004320
		CHANNELS 3 Zrotation Yrotation Xrotation
		JOINT RightLeg
		{
			OFFSET -0.038290 -0.382569 -0.008850
			CHANNELS 3 Zrotation Yrotation Xrotation
			JOINT RightFoot
			{
				OFFSET 0.015774 -0.398415 -0.042312
				CHANNELS 3 Zrotation Yrotation Xrotation
				JOINT RightToe
				{
					OFFSET -0.025372 -0.048144 0.123348
					CHANNELS 3 Zrotation Yrotation Xrotation
					End Site
					{
						OFFSET 0.000000 0.000000 0.000000
					}
				}
			}
		}
	}
	JOINT Spine
	{
		OFFSET -0.002533 0.108963 -0.026696
		CHANNELS 3 Zrotation Yrotation Xrotation
		JOINT Spine1
		{
			OFFSET 0.005487 0.135180 0.001092
			CHANNELS 3 Zrotation Yrotation Xrotation
			JOINT Spine2
			{
				OFFSET 0.001457 0.052922 0.025425
				CHANNELS 3 Zrotation Yrotation Xrotation
				JOINT Neck
				{
					OFFSET -0.002778 0.213870 -0.042857
					CHANNELS 3 Zrotation Yrotation Xrotation
					JOINT Head
					{
						OFFSET 0.005152 0.064970 0.051349
						CHANNELS 3 Zrotation Yrotation Xrotation
						End Site
						{
							OFFSET 0.000000 0.000000 0.000000
						}
					}
				}
				JOINT LeftShoulder
				{
					OFFSET 0.078845 0.121749 -0.034090
					CHANNELS 3 Zrotation Yrotation Xrotation
					JOINT LeftArm
					{
						OFFSET 0.090977 0.030469 -0.008868
						CHANNELS 3 Zrotation Yrotation Xrotation
						JOINT LeftForeArm
						{
							OFFSET 0.259612 -0.012772 -0.027456
							CHANNELS 3 Zrotation Yrotation Xrotation
							JOINT LeftHand
							{
								OFFSET 0.249234 0.008986 -0.001171
								CHANNELS 3 Zrotation Yrotation Xrotation
								End Site
								{
									OFFSET 0.000000 0.000000 0.000000
								}
							}
						}
					}
				}
				JOINT RightShoulder
				{
					OFFSET -0.081759 0.118833 -0.038615
					CHANNELS 3 Zrotation Yrotation Xrotation
					JOINT RightArm
					{
						OFFSET -0.096012 0.032551 -0.009143
						CHANNELS 3 Zrotation Yrotation Xrotation
						JOINT RightForeArm
						{
							OFFSET -0.253742 -0.013329 -0.021401
							CHANNELS 3 Zrotation Yrotation Xrotation
							JOINT RightHand
							{
								OFFSET -0.255298 0.007772 -0.005559
								CHANNELS 3 Zrotation Yrotation Xrotation
								End Site
								{
									OFFSET 0.000000 0.000000 0.000000
								}
							}
						}
					}
				}
			}
		}
	}
}
MOTION
Frames: 7
Frame Time: 0.050000
-0.017673 0.187075 1.330338 -0.666895 -4.738234 -71.975048 48.462989 27.299855 -63.010169 25.042107 -67.400919 109.462351 35.533643 -75.558953 -83.282415 0.000000 0.000000 0.000000 -45.591518 -16.424617 -47.254642 12.185975 11.342907 139.294268 -8.248362 2.382085 -63.313436 0.000000 0.000000 0.000000 -3.875592 -1.594663 27.664550 -11.535109 -9.907988 171.705127 -13.823590 -15.325414 -163.515593 4.800384 -7.365855 12.972879 0.000000 0.000000 0.000000 4.465267 -17.516333 9.857577 -36.895939 -62.781202 17.919146 71.468292 -56.442108 -66.752057 0.000000 0.000000 0.000000 6.332177 6.725993 0.903180 23.618218 37.416355 12.702959 -99.783675 51.848201 -68.897396 0.000000 0.000000 0.000000
-0.019671 0.197301 1.329898 -3.558667 -4.529756 -65.801014 52.003803 27.239941 -63.219102 6.496451 -48.938032 124.466086 18.098078 -69.375143 -63.894411 0.000000 0.000000 0.000000 -46.832256 -17.176160 -45.432258 15.371463 -1.411970 127.576494 -7.547420 -3.204178 -57.593698 0.000000 0.000000 0.000000 1.782029 -1.127395 39.201719 -3.111583 -1.450284 171.596072 1.639858 -1.685022 -168.465804 53.063766 11.429427 30.293753 0.000000 0.000000 0.000000 -1.257377 -26.246539 6.902728 -26.594125 -52.369145 22.334255 52.584493 -46.535034 -37.408593 0.000000 0.000000 0.000000 12.502269 17.466126 2.251845 21.732601 30.209140 17.080827 -90.079899 50.647654 -63.225197 0.000000 0.000000 0.000000
-0.022503 0.218886 1.330910 -1.527599 -6.436330 -59.965938 56.211655 28.408918 -54.318447 -2.104249 -28.383628 123.456699 5.376957 -58.773237 -47.293790 0.000000 0.000000 0.000000 -48.871363 -16.683967 -49.048223 20.529616 -10.422187 114.547712 -7.176232 -2.260943 -48.854750 0.000000 0.000000 0.000000 5.192383 -1.116558 47.629325 5.283541 8.547871 164.229200 14.320967 2.885898 -159.951423 53.312744 19.186925 28.337465 0.000000 0.000000 0.000000 -8.044095 -33.414677 10.823026 -18.079433 -46.294482 19.803585 44.026788 -38.202560 -20.308878 0.000000 0.000000 0.000000 13.072929 16.533444 3.420283 23.362264 31.929173 20.683207 -74.794571 47.232427 -50.290584 0.000000 0.000000 0.000000
-0.025796 0.241648 1.334313 -4.620039 -8.997379 -47.430777 57.680975 28.922059 -53.329906 -3.125368 -17.057986 113.861667 7.706802 -48.599857 -49.654848 0.000000 0.000000 0.000000 -48.062510 -15.673346 -51.377083 27.487028 -19.459198 95.357345 -7.319001 -10.745569 -40.525056 0.000000 0.000000 0.000000 5.546581 -2.556642 56.791906 2.048425 5.977254 161.427867 10.993164 1.624428 -163.250997 84.280041 30.947151 40.151626 0.000000 0.000000 0.000000 -5.210264 -34.387768 10.299112 -22.546973 -40.450685 38.942259 54.354217 -17.271664 -14.649377 0.000000 0.000000 0.000000 13.404389 23.536502 3.474733 25.929944 30.112330 34.471957 -55.311010 30.550608 -24.487972 0.000000 0.000000 0.000000
-0.028475 0.271490 1.338602 -4.613406 -10.158692 -33.824999 64.837692 31.192553 -48.274081 -10.411284 0.602276 104.837524 8.469066 -39.923246 -49.596314 0.000000 0.000000 0.000000 -54.055217 -17.008770 -52.866950 40.506688 -27.193271 73.699163 -7.913091 -18.038122 -34.436973 0.000000 0.000000 0.000000 3.579552 -2.559114 71.374656 20.861506 26.443892 -176.067360 29.397833 23.516042 -175.433663 -117.513151 -63.544426 80.499036 0.000000 0.000000 0.000000 17.965933 -10.404265 104.169797 62.448575 -17.316980 51.551648 -59.140799 51.384165 4.593318 0.000000 0.000000 0.000000 -9.294258 2.128259 89.911646 -64.020066 31.280548 11.264430 -21.764619 -50.850659 7.637031 0.000000 0.000000 0.000000
-0.030027 0.310546 1.344844 -5.370396 -10.995161 -19.891975 67.569039 32.465173 -46.385240 -16.310583 10.808928 90.110074 8.832050 -32.583836 -49.236202 0.000000 0.000000 0.000000 -55.392460 -16.862452 -54.722060 47.824417 -26.710592 55.533668 -8.659016 -25.553781 -34.845618 0.000000 0.000000 0.000000 0.572882 -0.120523 73.713224 -65.087301 -8.700651 -104.320497 -11.895853 -62.143092 122.400490 5.486459 -47.681997 -47.197727 0.000000 0.000000 0.000000 3.305931 -52.600217 -72.880532 -14.059120 -2.651404 -3.715808 -23.477056 -48.385690 -1.373758 0.000000 0.000000 0.000000 8.037486 28.948206 12.750016 -14.393987 38.485114 -27.247403 -23.653011 26.280344 -14.633159 0.000000 0.000000 0.000000
-0.030667 0.362713 1.355639 -6.158959 -11.500672 -6.360177 68.823845 32.483009 -43.896669 -26.492717 19.206924 70.925243 8.608820 -18.546075 -47.165242 0.000000 0.000000 0.000000 -56.208435 -16.651483 -56.197815 52.967709 -20.067285 32.554245 -10.330268 -36.472692 -28.402894 0.000000 0.000000 0.000000 -0.850556 1.931232 78.396462 -4.179293 0.237443 -48.410444 0.660207 3.556739 30.700025 0.649094 -7.982072 37.981599 0.000000 0.000000 0.000000 -33.497228 -38.080472 24.116399 6.816817 -22.543818 -1.909415 28.715813 -30.900907 -8.085667 0.000000 0.000000 0.000000 35.152981 33.320814 22.802881 -10.262635 29.991528 -3.811877 -22.037902 21.005378 -3.817435 0.000000 0.000000 0.000000
